<?xml version="1.0" encoding="UTF-8"?>
<svg version="1.1" xmlns="http://www.w3.org/2000/svg" width="1400" height="704">
<path d="M0 0 C16.0565625 -0.0928125 16.0565625 -0.0928125 32.4375 -0.1875 C35.78060303 -0.21481201 39.12370605 -0.24212402 42.56811523 -0.27026367 C45.27327109 -0.27904074 47.97843096 -0.28668177 50.68359375 -0.29296875 C51.35979263 -0.30080887 52.03599152 -0.30864899 52.73268127 -0.31672668 C72.02593942 -0.52865616 91.37517199 1.9973401 105.90234375 15.80859375 C114.15768333 24.48280891 115.59113133 33.03464761 115.47290039 44.66601562 C115.25001172 51.0977732 114.43228841 56.43990663 111 62 C110.57589844 62.7115625 110.15179687 63.423125 109.71484375 64.15625 C103.05916562 74.09341847 91.96861913 78.34379362 81 82 C85.67167355 87.41053325 90.4625364 92.68278916 95.375 97.875 C100.37822499 103.18393989 105.32890507 108.52491854 110.16796875 113.984375 C112.05120047 116.05633143 114.00498697 118.03595169 116 120 C115.505 121.485 115.505 121.485 115 123 C109.75165057 123.10494401 104.50839233 123.14316941 99.2590332 123.12207031 C97.47734808 123.12400605 95.69558543 123.14354192 93.91430664 123.18164062 C79.15335342 123.47925716 79.15335342 123.47925716 73.97558594 119.92236328 C71.70756387 117.39827421 69.84906569 114.840547 68 112 C66.98825994 110.84271996 65.95216612 109.705826 64.8828125 108.6015625 C64.42632324 108.10825439 63.96983398 107.61494629 63.49951172 107.10668945 C63.04592285 106.61773193 62.59233398 106.12877441 62.125 105.625 C57.12393314 100.22193117 52.14643352 94.79790915 47.1796875 89.36328125 C40.83134544 82.48022221 42.99954887 84.99996778 29 84 C29 96.54 29 109.08 29 122 C19.43 122 9.86 122 0 122 C0 81.74 0 41.48 0 0 Z M29 26 C29 36.56 29 47.12 29 58 C33.90747117 58.0462969 38.81416287 58.08600332 43.72167969 58.10986328 C45.38576853 58.11982596 47.04984031 58.13340102 48.71386719 58.15087891 C66.5981697 58.86320731 66.5981697 58.86320731 83 53 C85.92156017 49.77620947 86.91403098 47.11759726 87.25 42.75 C86.9579047 38.36857054 86.27582196 35.76933012 84 32 C74.30733105 23.80829554 56.50087129 25.73946082 44.625 25.875 C39.46875 25.91625 34.3125 25.9575 29 26 Z " fill="#F5F5F5" transform="translate(987,305)"/>
<path d="M0 0 C10.56 0 21.12 0 32 0 C43.71318916 26.94241557 55.42508685 53.88430584 66.94995117 80.90795898 C70.11013739 88.31081045 73.28918494 95.70149341 76.58984375 103.04296875 C77.12061523 104.22729492 77.65138672 105.41162109 78.19824219 106.63183594 C79.15477938 108.75503489 80.11958696 110.87453799 81.09472656 112.98925781 C81.50045898 113.88870117 81.90619141 114.78814453 82.32421875 115.71484375 C82.67572998 116.47917725 83.02724121 117.24351074 83.3894043 118.03100586 C84 120 84 120 83 123 C72.77 122.67 62.54 122.34 52 122 C49.36 115.73 46.72 109.46 44 103 C25.52 103 7.04 103 -12 103 C-14.64 108.94 -17.28 114.88 -20 121 C-21 122 -21 122 -23.95922852 122.11352539 C-25.25272217 122.10828857 -26.54621582 122.10305176 -27.87890625 122.09765625 C-28.90889992 122.09553383 -28.90889992 122.09553383 -29.95970154 122.09336853 C-32.16067801 122.08775479 -34.36155409 122.07520007 -36.5625 122.0625 C-38.05143083 122.05748676 -39.54036324 122.05292355 -41.02929688 122.04882812 C-44.68623075 122.03778093 -48.34310558 122.02050713 -52 122 C-50.06857188 115.87261157 -47.81072479 110.00049144 -45.19140625 104.13671875 C-44.82884232 103.31579239 -44.46627838 102.49486603 -44.09272766 101.64906311 C-43.31961746 99.89943816 -42.54475057 98.15058852 -41.76824951 96.40246582 C-39.71588402 91.78118908 -37.67714767 87.15390004 -35.63671875 82.52734375 C-35.23225525 81.61115265 -34.82779175 80.69496155 -34.41107178 79.75100708 C-31.184899 72.43727752 -28.01066614 65.10305416 -24.875 57.75 C-19.40589169 44.92989795 -13.87799486 32.13576172 -8.34130859 19.34472656 C-7.8430381 18.19352074 -7.8430381 18.19352074 -7.33470154 17.01905823 C-6.71430184 15.58583483 -6.09375862 14.15267355 -5.47303772 12.71958923 C-5.19117111 12.06857742 -4.9093045 11.41756561 -4.61889648 10.74682617 C-4.3775145 10.18952316 -4.13613251 9.63222015 -3.88743591 9.05802917 C-2.58643718 6.0409174 -1.29428485 3.01999799 0 0 Z M15 38 C12.71904682 43.25005962 10.44044742 48.50113183 8.1640625 53.75317383 C7.38867428 55.54121776 6.61263361 57.32897889 5.8359375 59.11645508 C4.72225688 61.67976717 3.61089562 64.24407369 2.5 66.80859375 C2.15001953 67.6127623 1.80003906 68.41693085 1.43945312 69.24546814 C-0.24550069 72.51411285 -0.24550069 72.51411285 -1 76 C10.22 76 21.44 76 33 76 C25.12833399 56.70751273 25.12833399 56.70751273 16 38 C15.67 38 15.34 38 15 38 Z " fill="#F5F5F5" transform="translate(866,305)"/>
<path d="M0 0 C1.29349365 0.00523682 2.5869873 0.01047363 3.91967773 0.01586914 C4.9496714 0.01799156 4.9496714 0.01799156 6.00047302 0.02015686 C8.20144949 0.0257706 10.40232557 0.03832532 12.60327148 0.05102539 C14.09220231 0.05603863 15.58113473 0.06060184 17.07006836 0.06469727 C20.72700223 0.07574446 24.38387707 0.09301826 28.04077148 0.11352539 C32.21673328 8.19566948 35.98854044 16.40362441 39.53320312 24.77841187 C40.45096195 26.94666468 41.37326749 29.1129369 42.29663086 31.27880859 C43.34023338 33.72706659 44.38345192 36.17548373 45.425354 38.62446594 C49.97504732 49.31822878 54.55406976 59.99944284 59.13233757 70.68099403 C60.97323011 74.97605304 62.81266798 79.27173291 64.65161133 83.56762695 C65.64590075 85.888922 66.64020379 88.21021121 67.63452148 90.53149414 C68.10806061 91.63840607 68.58159973 92.74531799 69.06948853 93.88577271 C71.12447703 98.68171162 73.18961089 103.47149527 75.31420898 108.23706055 C75.64795532 108.98740067 75.98170166 109.73774078 76.32556152 110.51081848 C76.92455879 111.85187833 77.52823583 113.1908634 78.13781738 114.52714539 C79.36349898 117.26919101 80.04077148 119.06522704 80.04077148 122.11352539 C69.81077148 122.11352539 59.58077148 122.11352539 49.04077148 122.11352539 C47.72077148 119.18477539 46.40077148 116.25602539 45.04077148 113.23852539 C44.62311523 112.31700684 44.20545898 111.39548828 43.77514648 110.44604492 C43.45030273 109.7201416 43.12545898 108.99423828 42.79077148 108.24633789 C42.45561523 107.50270996 42.12045898 106.75908203 41.77514648 105.99291992 C41.04077148 104.11352539 41.04077148 104.11352539 41.04077148 102.11352539 C22.23077148 102.11352539 3.42077148 102.11352539 -15.95922852 102.11352539 C-16.28922852 103.76352539 -16.61922852 105.41352539 -16.95922852 107.11352539 C-17.71533203 109.05810547 -17.71533203 109.05810547 -18.58813477 110.88305664 C-19.01074585 111.777948 -19.01074585 111.777948 -19.44189453 112.69091797 C-19.79823975 113.42850342 -20.15458496 114.16608887 -20.52172852 114.92602539 C-21.65610352 117.29790039 -22.79047852 119.66977539 -23.95922852 122.11352539 C-34.18922852 122.11352539 -44.41922852 122.11352539 -54.95922852 122.11352539 C-54.20225146 118.32864013 -53.49032152 115.70228817 -51.98828125 112.26782227 C-51.57893845 111.32517014 -51.16959564 110.38251801 -50.74784851 109.41130066 C-50.30068985 108.39522232 -49.85353119 107.37914398 -49.39282227 106.33227539 C-48.92693192 105.26290237 -48.46104156 104.19352936 -47.98103333 103.0917511 C-46.4573875 99.59704551 -44.92700412 96.1053323 -43.39672852 92.61352539 C-42.34312761 90.19929202 -41.29007097 87.78482106 -40.23754883 85.37011719 C-38.13035316 80.53679564 -36.02104357 75.70440643 -33.90991211 70.87280273 C-29.99035896 61.89889397 -26.09564541 52.91432394 -22.20922852 43.92602539 C-21.88992371 43.18839966 -21.5706189 42.45077393 -21.24163818 41.6907959 C-17.98895737 34.17614685 -14.75424369 26.65461633 -11.57250977 19.10961914 C-11.17728622 18.17258904 -11.17728622 18.17258904 -10.77407837 17.21662903 C-9.55868161 14.3323775 -8.34759671 11.44640393 -7.1418457 8.55810547 C-6.52744629 7.09280396 -6.52744629 7.09280396 -5.90063477 5.59790039 C-5.54686768 4.749375 -5.19310059 3.90084961 -4.82861328 3.02661133 C-3.47144164 0.0401477 -3.48255739 0.13360195 0 0 Z M12.04077148 37.11352539 C9.75986064 42.50604449 7.48126016 47.89953149 5.20483398 53.29394531 C4.42943382 55.13047931 3.65339312 56.96674301 2.87670898 58.80273438 C1.76305963 61.43557758 0.65168682 64.06937137 -0.45922852 66.70336914 C-0.80920898 67.52941147 -1.15918945 68.3554538 -1.51977539 69.20652771 C-3.20280876 72.55537484 -3.20280876 72.55537484 -3.95922852 76.11352539 C6.93077148 76.11352539 17.82077148 76.11352539 29.04077148 76.11352539 C27.15727851 70.46304647 25.29079413 65.08482865 22.90405273 59.67211914 C22.61974899 59.01897232 22.33544525 58.3658255 22.04252625 57.69288635 C21.14971187 55.64400344 20.25160822 53.59749208 19.35327148 51.55102539 C18.74028668 50.14688326 18.12765363 48.74258752 17.51538086 47.33813477 C16.0278949 43.92815137 14.535662 40.52027035 13.04077148 37.11352539 C12.71077148 37.11352539 12.38077148 37.11352539 12.04077148 37.11352539 Z " fill="#F5F5F5" transform="translate(421.959228515625,304.886474609375)"/>
<path d="M0 0 C1.26642334 -0.00960754 2.53284668 -0.01921509 3.83764648 -0.02911377 C5.23681457 -0.03396862 6.63598476 -0.03824575 8.03515625 -0.04199219 C9.47273763 -0.04774928 10.91031901 -0.05350694 12.34790039 -0.05926514 C15.37777056 -0.06980052 18.40761408 -0.07562297 21.4375 -0.07910156 C24.515748 -0.08345028 27.59371003 -0.09719258 30.671875 -0.12011719 C83.10622431 -0.50310518 83.10622431 -0.50310518 100.06640625 16.08691406 C107.07265281 24.20644133 109.9118667 34.48831623 109.4765625 45.11816406 C108.13491501 55.89283824 104.46606751 64.80921796 96.06640625 71.86816406 C79.3155793 83.85471595 59.2935617 84.65486228 39.47265625 84.34863281 C30.87203125 84.25582031 30.87203125 84.25582031 22.09765625 84.16113281 C22.09765625 96.70113281 22.09765625 109.24113281 22.09765625 122.16113281 C12.52765625 122.16113281 2.95765625 122.16113281 -6.90234375 122.16113281 C-6.92489104 106.40196217 -6.94332308 90.64280424 -6.95415592 74.88362217 C-6.95931881 67.56685879 -6.96636137 60.25010612 -6.9777832 52.93334961 C-6.98773026 46.55830263 -6.99419723 40.18326341 -6.99643224 33.80820888 C-6.99773932 30.43065267 -7.00082494 27.05311865 -7.00807381 23.67556953 C-7.01527988 19.91105938 -7.01633488 16.14659596 -7.01586914 12.38208008 C-7.02126205 10.69031395 -7.02126205 10.69031395 -7.02676392 8.96437073 C-7.02538925 7.94488342 -7.02401459 6.92539612 -7.02259827 5.87501526 C-7.02352006 4.98364144 -7.02444185 4.09226763 -7.02539158 3.17388248 C-6.76442089 -1.0949345 -3.58729286 0.02188949 0 0 Z M22.09765625 26.16113281 C22.09765625 36.72113281 22.09765625 47.28113281 22.09765625 58.16113281 C27.11122025 58.23069408 32.12305329 58.29021108 37.13671875 58.32592773 C38.83567027 58.34084489 40.53458446 58.36118596 42.23339844 58.38745117 C60.49179648 59.17464318 60.49179648 59.17464318 76.91015625 52.66113281 C80.47095669 48.5916466 80.44307096 44.85746523 80.375 39.66894531 C79.95977613 35.91438581 78.64180966 33.90614044 76.09765625 31.16113281 C64.95360404 24.67183706 50.15387479 25.89272378 37.66015625 26.03613281 C32.52453125 26.07738281 27.38890625 26.11863281 22.09765625 26.16113281 Z " fill="#F5F5F5" transform="translate(698.90234375,304.8388671875)"/>
<path d="M0 0 C10.539375 -0.061875 21.07875 -0.12375 31.9375 -0.1875 C35.228396 -0.21481201 38.51929199 -0.24212402 41.90991211 -0.27026367 C88.92198871 -0.49936821 88.92198871 -0.49936821 106.51953125 16.46484375 C114.76483576 25.45745682 115.56319037 36.50335449 115.12744141 48.06005859 C114.49433157 57.69739718 109.76792513 64.37176018 103 70.94140625 C90.12368968 81.90047183 72.53868604 83.94932256 56.24609375 84.31640625 C55.54746216 84.33505737 54.84883057 84.3537085 54.12902832 84.3729248 C51.5652913 84.44027048 49.00138439 84.5010201 46.4375 84.5625 C40.683125 84.706875 34.92875 84.85125 29 85 C29 97.21 29 109.42 29 122 C19.43 122 9.86 122 0 122 C0 81.74 0 41.48 0 0 Z M28 26 C28 36.56 28 47.12 28 58 C33.04987925 58.04628199 38.09900226 58.08599335 43.14892578 58.10986328 C44.86151646 58.11982955 46.57409054 58.13340747 48.28662109 58.15087891 C67.08583693 58.88016536 67.08583693 58.88016536 84 52 C87.14321333 47.18395788 86.6865078 41.51420784 86 36 C84.78768979 32.83076265 83.84946742 32.22258459 81 30 C69.47745436 24.8607407 56.19150733 25.86878442 43.875 25.9375 C38.63625 25.958125 33.3975 25.97875 28 26 Z " fill="#F5F5F5" transform="translate(540,305)"/>
<path d="M0 0 C33.81378202 -2.7709663 33.81378202 -2.7709663 40.93359375 3.10546875 C43.8180925 6.35108587 45.90966843 9.97059881 47.85253906 13.84033203 C49.66636549 17.25418492 52.07346332 20.13250854 54.5 23.125 C55.2528125 24.11757813 56.005625 25.11015625 56.78125 26.1328125 C59.11898438 29.15375799 61.53869511 32.07936708 64 35 C68.23921706 30.9278065 71.96887614 26.54819478 75.6875 22 C76.52958008 20.98099609 76.52958008 20.98099609 77.38867188 19.94140625 C77.96552734 19.23886719 78.54238281 18.53632813 79.13671875 17.8125 C80.06774414 16.70878052 80.06774414 16.70878052 81.01757812 15.58276367 C83.12924573 12.9419167 83.12924573 12.9419167 85.01367188 9.56762695 C90.27653611 0.89732885 90.27653611 0.89732885 95.03048706 -0.66900635 C100.72217894 -1.60771232 106.39835587 -1.18842014 112.125 -0.8125 C113.86176151 -0.74718506 115.59876031 -0.68788781 117.3359375 -0.63476562 C121.56322039 -0.49250353 125.7789611 -0.26894721 130 0 C130 0.66 130 1.32 130 2 C129.34 2 128.68 2 128 2 C127.67322266 2.77730469 127.67322266 2.77730469 127.33984375 3.5703125 C125.45592297 6.98663531 123.02622833 9.86025092 120.5625 12.875 C119.47081786 14.22482685 118.37968393 15.57509723 117.2890625 16.92578125 C116.73766602 17.60721191 116.18626953 18.28864258 115.61816406 18.99072266 C113.19897514 21.99463407 110.8158548 25.02621987 108.4375 28.0625 C107.98761719 28.63605225 107.53773438 29.20960449 107.07421875 29.80053711 C105.71552809 31.53320835 104.35763179 33.26649899 103 35 C101.6684915 36.70014532 100.33690463 38.40017519 99.00099182 40.09686279 C98.09162728 41.26044967 97.19014734 42.4302804 96.29985046 43.60852051 C93.9958939 46.62463275 91.6893627 49.36569423 88.87573242 51.91845703 C80.72757452 59.76080952 78.89943983 66.9519254 78.609375 78.15234375 C78.56144641 82.7438158 78.60946051 87.32615884 78.71246338 91.91656494 C78.77560387 95.31598744 78.76997113 98.71532384 78.76953125 102.11523438 C78.77356444 108.74781046 78.88916722 115.36495278 79 122 C69.43 122 59.86 122 50 122 C50.08314453 115.96332031 50.08314453 115.96332031 50.16796875 109.8046875 C50.18135082 106.5558297 50.18360692 103.30737867 50.17845917 100.05851746 C50.17605945 96.6500849 50.19234742 93.24430053 50.25708008 89.83642578 C51.1428147 70.43262575 51.1428147 70.43262575 42.32403564 54.03623962 C40.91073866 52.66139259 39.45653019 51.32895919 38 50 C36.78244612 48.55367152 35.58851611 47.08665966 34.43359375 45.58984375 C33.43566643 44.3717641 32.43698583 43.15430115 31.4375 41.9375 C26.70128436 36.1405292 22.09332891 30.2648166 17.5546875 24.3125 C14.11565251 19.82561266 10.5663689 15.4263858 7.02124023 11.02319336 C5.67675275 9.35200377 4.33733037 7.6769185 3 6 C2.39027344 5.23816406 1.78054687 4.47632813 1.15234375 3.69140625 C0 2 0 2 0 0 Z " fill="#F5F5F5" transform="translate(226,305)"/>
<path d="M0 0 C9.57 0 19.14 0 29 0 C29 40.26 29 80.52 29 122 C19.43 122 9.86 122 0 122 C0 81.74 0 41.48 0 0 Z " fill="#F5F5F5" transform="translate(1145,305)"/>
<path d="M0 0 C16.23093264 9.82328876 26.56498071 23.37432879 31.8034668 41.64257812 C32.92427438 46.96467809 32.92419617 52.27852429 32.89453125 57.69921875 C32.88953613 58.89200439 32.88454102 60.08479004 32.87939453 61.3137207 C32.63654249 73.58277311 30.15958567 84.33924321 21.39453125 93.44921875 C14.08551014 100.44921875 14.08551014 100.44921875 12.39453125 100.44921875 C12.30816406 99.505625 12.22179687 98.56203125 12.1328125 97.58984375 C11.16613379 88.7567062 9.37073931 81.49098787 5.39453125 73.44921875 C4.9975 72.58296875 4.60046875 71.71671875 4.19140625 70.82421875 C-0.8559792 60.6078241 -8.74634829 52.20098913 -16.05078125 43.5546875 C-25.05754163 32.68150719 -29.47018391 21.63721665 -29.60546875 7.44921875 C-29.27502273 4.14934809 -28.66515126 1.62826627 -27.60546875 -1.55078125 C-19.45356455 -4.26808265 -7.74297188 -3.75936454 0 0 Z " fill="#F5F5F5" transform="translate(747.60546875,147.55078125)"/>
<path d="M0 0 C-0.03480469 0.87140625 -0.06960938 1.7428125 -0.10546875 2.640625 C-0.55353091 22.35536011 6.61041718 36.86037531 19.8125 51.125 C30.91274666 63.54003316 41.32308175 79.67660434 41.0625 96.875 C41.05347656 97.65617187 41.04445313 98.43734375 41.03515625 99.2421875 C41.02355469 99.82226562 41.01195312 100.40234375 41 101 C31.99118649 105.40856831 23.65751514 105.88523274 14 103 C-1.21229203 96.70232386 -11.54685572 84.61784918 -17.9375 69.734375 C-24.3628079 53.19865615 -24.7248618 36.75182638 -19 20 C-16.25942123 14.1208954 -12.90221351 9.28943682 -8 5 C-7.48050781 4.5359375 -6.96101562 4.071875 -6.42578125 3.59375 C-2.30295139 0 -2.30295139 0 0 0 Z " fill="#F5F5F5" transform="translate(716,149)"/>
<path d="M0 0 C0.02578125 1.19753906 0.0515625 2.39507812 0.078125 3.62890625 C0.50261682 17.33857693 1.98419 29.94241717 9.2421875 41.94921875 C10 44 10 44 9.34765625 46.0859375 C3.70128741 54.10541788 -7.41178234 58.47534262 -16.6875 60.3125 C-27.9532967 62.02335165 -27.9532967 62.02335165 -32 60 C-36.47000465 49.8502188 -35.76482424 40.50673148 -32.3359375 30.18359375 C-30.25298421 25.21983079 -27.3436345 21.18528163 -24 17 C-23.2575 15.96875 -22.515 14.9375 -21.75 13.875 C-16.68829562 8.58321815 -7.64243508 0 0 0 Z " fill="#F5F5F5" transform="translate(690,184)"/>
<path d="M0 0 C4.74375 -0.0825 9.4875 -0.165 14.375 -0.25 C15.8501709 -0.28641602 17.3253418 -0.32283203 18.84521484 -0.36035156 C26.55999815 -0.42494529 33.25999342 -0.05876943 40 4 C43.03471984 7.25148554 43.87398307 9.11788151 44.5 13.5 C43.91655905 17.58408663 42.51549054 19.77702775 40 23 C40.66 23.680625 41.32 24.36125 42 25.0625 C44.52217356 28.76694242 44.61871554 30.59165176 44 35 C41.71172294 40.07400566 38.8517792 42.09287212 33.92211914 44.19067383 C27.74875937 45.90048147 21.28753286 45.40050154 14.9375 45.25 C7.5434375 45.12625 7.5434375 45.12625 0 45 C0 30.15 0 15.3 0 0 Z M12 10 C12 12.31 12 14.62 12 17 C14.93804996 17.08086376 17.87388075 17.1404283 20.8125 17.1875 C21.64587891 17.21263672 22.47925781 17.23777344 23.33789062 17.26367188 C24.14033203 17.27333984 24.94277344 17.28300781 25.76953125 17.29296875 C26.50792236 17.3086792 27.24631348 17.32438965 28.00708008 17.34057617 C30.52230522 16.91074167 31.39441516 15.92536938 33 14 C30.55062866 11.03497154 28.75651926 10.54260834 25 10 C22.73004581 9.93347145 20.45831305 9.91456249 18.1875 9.9375 C17.02605469 9.94652344 15.86460937 9.95554687 14.66796875 9.96484375 C13.78753906 9.97644531 12.90710938 9.98804688 12 10 Z M12 28 C12 30.31 12 32.62 12 35 C14.56314499 35.08132187 17.12368418 35.14064175 19.6875 35.1875 C20.7693457 35.22520508 20.7693457 35.22520508 21.87304688 35.26367188 C26.47589338 35.32672457 29.30307233 34.77816458 33 32 C31.30610638 29.68683344 29.97994403 28.16813253 27.07617188 27.66992188 C24.78970912 27.6065793 22.53516518 27.65146883 20.25 27.75 C19.45722656 27.76804687 18.66445313 27.78609375 17.84765625 27.8046875 C15.89791652 27.85166918 13.94880122 27.92340956 12 28 Z " fill="#F5F5F5" transform="translate(867,490)"/>
<path d="M0 0 C15.18 0 30.36 0 46 0 C46 3.3 46 6.6 46 10 C34.78 10 23.56 10 12 10 C12 12.31 12 14.62 12 17 C20.58 17 29.16 17 38 17 C38 20.63 38 24.26 38 28 C29.42 28 20.84 28 12 28 C12 30.31 12 32.62 12 35 C23.22 35 34.44 35 46 35 C46 38.3 46 41.6 46 45 C30.82 45 15.64 45 0 45 C0 30.15 0 15.3 0 0 Z " fill="#F5F5F5" transform="translate(737,490)"/>
<path d="M0 0 C15.18 0 30.36 0 46 0 C46 3.3 46 6.6 46 10 C34.45 10 22.9 10 11 10 C11 12.31 11 14.62 11 17 C19.91 17 28.82 17 38 17 C38 20.63 38 24.26 38 28 C29.09 28 20.18 28 11 28 C11 30.31 11 32.62 11 35 C22.55 35 34.1 35 46 35 C46 38.3 46 41.6 46 45 C30.82 45 15.64 45 0 45 C0 30.15 0 15.3 0 0 Z " fill="#F5F5F5" transform="translate(661,490)"/>
<path d="M0 0 C4.434375 -0.061875 8.86875 -0.12375 13.4375 -0.1875 C14.81736084 -0.21481201 16.19722168 -0.24212402 17.61889648 -0.27026367 C33.25643094 -0.37539565 33.25643094 -0.37539565 38.61108398 4.45263672 C42.51544238 8.97809624 43.29823193 11.96841958 43.21484375 17.75 C42.79235622 22.17459671 40.74527291 24.3478862 37.5 27.1875 C35.69398275 28.49686251 33.85607436 29.7626171 32 31 C36.57156336 36.32445686 36.57156336 36.32445686 41.4375 41.375 C43 43 43 43 43 45 C30.78967286 46.95165065 30.78967286 46.95165065 26.17626953 43.72412109 C23.30017691 40.99146215 20.9029093 37.98164778 18.48828125 34.84375 C17.66714844 33.9053125 16.84601563 32.966875 16 32 C14.68 32 13.36 32 12 32 C12 36.29 12 40.58 12 45 C8.04 45 4.08 45 0 45 C0 30.15 0 15.3 0 0 Z M11 10 C11 13.63 11 17.26 11 21 C13.56314499 21.08132187 16.12368418 21.14064175 18.6875 21.1875 C19.7693457 21.22520508 19.7693457 21.22520508 20.87304688 21.26367188 C25.47589338 21.32672457 28.30307233 20.77816458 32 18 C31.67 16.02 31.34 14.04 31 12 C26.37630977 10.19320413 22.57471347 9.78160918 17.625 9.875 C15.75714844 9.90207031 15.75714844 9.90207031 13.8515625 9.9296875 C12.91054687 9.95289063 11.96953125 9.97609375 11 10 Z " fill="#F5F5F5" transform="translate(1021,490)"/>
<path d="M0 0 C5.2301062 5.34897225 6.98877146 9.78911811 7.25 17.3125 C7.00893873 24.03888712 5.71976887 28.59824652 1.13671875 33.55859375 C-5.41813726 39.6192921 -12.05152398 40.27726459 -20.76953125 40.12109375 C-27.48082072 39.52604115 -32.15079488 37.35776007 -36.6875 32.375 C-41.97602036 25.88111887 -42.01107109 18.87204774 -41.25 10.8125 C-39.52091183 4.04935767 -35.09034682 0.29380477 -29.25 -3.1875 C-19.70982408 -7.95758796 -8.47479292 -5.70418754 0 0 Z M-28.0625 9.4375 C-29.89609144 13.10468289 -30.38155555 16.72696945 -30.25 20.8125 C-28.8297027 24.07918379 -26.98781644 26.5309863 -24.25 28.8125 C-19.21080822 30.49223059 -14.89122002 30.36989548 -9.9375 28.6875 C-6.59811766 26.35769837 -5.57822769 24.64960223 -4.25 20.8125 C-3.71922469 16.56629753 -3.95446512 14.40356976 -5.875 10.5625 C-9.22736596 6.6808131 -12.16101903 5.07362262 -17.25 4.4375 C-21.63572864 4.98571608 -24.77347384 6.48871792 -28.0625 9.4375 Z " fill="#F5F5F5" transform="translate(483.25,495.1875)"/>
<path d="M0 0 C1.2265625 1.50390625 1.2265625 1.50390625 2.625 3.5625 C9.78911991 13.29747633 19.60591405 19.20197135 31 23 C31 23.66 31 24.32 31 25 C28.83657484 25.96624888 26.66968741 26.9229943 24.5 27.875 C23.2934375 28.40867187 22.086875 28.94234375 20.84375 29.4921875 C7.55249912 34.92404268 -9.68510573 35.31043017 -23.1640625 30.33984375 C-29.72879869 27.23832238 -36.21997178 23.56382038 -41 18 C-41 17.01 -41 16.02 -41 15 C-40.04480469 14.90203125 -39.08960938 14.8040625 -38.10546875 14.703125 C-25.76601727 13.27602991 -12.44336006 10.56624572 -3.34375 1.31640625 C-2 0 -2 0 0 0 Z " fill="#F5F5F5" transform="translate(703,233)"/>
<path d="M0 0 C3.09244792 0.03255208 6.18489583 0.06510417 9.27734375 0.09765625 C13.70943655 8.61624775 17.59819999 17.27708655 21.28417969 26.13769531 C22.16666899 28.25705938 23.05755416 30.3727633 23.94921875 32.48828125 C24.5148159 33.83963752 25.07993867 35.19119246 25.64453125 36.54296875 C26.15097168 37.75484863 26.65741211 38.96672852 27.17919922 40.21533203 C28.27734375 43.09765625 28.27734375 43.09765625 28.27734375 45.09765625 C24.31734375 45.09765625 20.35734375 45.09765625 16.27734375 45.09765625 C15.28734375 43.11765625 14.29734375 41.13765625 13.27734375 39.09765625 C6.67734375 39.09765625 0.07734375 39.09765625 -6.72265625 39.09765625 C-7.71265625 41.07765625 -8.70265625 43.05765625 -9.72265625 45.09765625 C-13.68265625 45.09765625 -17.64265625 45.09765625 -21.72265625 45.09765625 C-19.79896818 39.12753917 -17.67137771 33.3531308 -15.18359375 27.59765625 C-14.69410751 26.45502319 -14.69410751 26.45502319 -14.19473267 25.28930664 C-13.5124226 23.69879608 -12.82835498 22.1090384 -12.14257812 20.52001953 C-11.08909842 18.07781727 -10.04222114 15.6328594 -8.99609375 13.1875 C-8.32981142 11.63655358 -7.66315842 10.08576634 -6.99609375 8.53515625 C-6.68255951 7.80296875 -6.36902527 7.07078125 -6.04598999 6.31640625 C-3.36556996 0.12071628 -3.36556996 0.12071628 0 0 Z M2.27734375 16.09765625 C1.60647255 17.72092495 0.94077346 19.34633203 0.27734375 20.97265625 C-0.09390625 21.87757813 -0.46515625 22.7825 -0.84765625 23.71484375 C-1.83755851 25.98749483 -1.83755851 25.98749483 -1.72265625 28.09765625 C1.90734375 28.09765625 5.53734375 28.09765625 9.27734375 28.09765625 C7.62734375 24.13765625 5.97734375 20.17765625 4.27734375 16.09765625 C3.61734375 16.09765625 2.95734375 16.09765625 2.27734375 16.09765625 Z " fill="#F5F5F5" transform="translate(962.72265625,489.90234375)"/>
<path d="M0 0 C13.53 0 27.06 0 41 0 C41 3.3 41 6.6 41 10 C31.43 10.33 21.86 10.66 12 11 C12 13.31 12 15.62 12 18 C19.26 18.33 26.52 18.66 34 19 C34 22.3 34 25.6 34 29 C26.74 29.33 19.48 29.66 12 30 C12 34.95 12 39.9 12 45 C8.04 45 4.08 45 0 45 C0 30.15 0 15.3 0 0 Z " fill="#F5F5F5" transform="translate(520,490)"/>
<path d="M0 0 C13.2 0 26.4 0 40 0 C40 3.3 40 6.6 40 10 C30.43 10 20.86 10 11 10 C11 12.97 11 15.94 11 19 C18.26 19 25.52 19 33 19 C33 22.3 33 25.6 33 29 C25.74 29 18.48 29 11 29 C11 34.28 11 39.56 11 45 C7.37 45 3.74 45 0 45 C0 30.15 0 15.3 0 0 Z " fill="#F5F5F5" transform="translate(591,490)"/>
<path d="M0 0 C0.57105469 0.3609375 1.14210938 0.721875 1.73046875 1.09375 C0.1403652 4.4210592 -1.30297822 6.80526623 -4.26953125 9.09375 C-6.51953125 8.90625 -6.51953125 8.90625 -9.26953125 8.09375 C-15.50130538 6.88760017 -18.6907461 6.96963032 -24.26953125 10.09375 C-26.47780433 13.40615961 -26.9667232 15.15724537 -27.26953125 19.09375 C-26.11334946 24.88611351 -26.11334946 24.88611351 -22.26953125 29.09375 C-15.97084925 31.19331067 -10.38158031 30.13109969 -4.26953125 28.09375 C-2.28953125 30.07375 -0.30953125 32.05375 1.73046875 34.09375 C0.78719577 37.13318515 -0.26585641 38.09135708 -2.95703125 39.84375 C-10.62488929 42.73122792 -20.37240737 42.42266106 -27.83203125 39.15625 C-33.68281551 35.75304382 -37.15661632 30.43249478 -39.26953125 24.09375 C-39.97283217 16.95697512 -39.68516882 10.94015282 -35.26953125 5.09375 C-25.51035671 -5.41293578 -12.49615845 -7.15201438 0 0 Z " fill="#F5F5F5" transform="translate(410.26953125,493.90625)"/>
<path d="M0 0 C0.87454834 0.00523682 1.74909668 0.01047363 2.65014648 0.01586914 C3.59438477 0.0190918 4.53862305 0.02231445 5.51147461 0.02563477 C6.50469727 0.03401367 7.49791992 0.04239258 8.52124023 0.05102539 C9.51833008 0.05553711 10.51541992 0.06004883 11.54272461 0.06469727 C14.01478872 0.07652532 16.48673541 0.0930069 18.95874023 0.11352539 C18.95874023 2.09352539 18.95874023 4.07352539 18.95874023 6.11352539 C13.67874023 6.11352539 8.39874023 6.11352539 2.95874023 6.11352539 C2.95874023 7.10352539 2.95874023 8.09352539 2.95874023 9.11352539 C7.24874023 9.11352539 11.53874023 9.11352539 15.95874023 9.11352539 C15.95874023 10.76352539 15.95874023 12.41352539 15.95874023 14.11352539 C11.66874023 14.11352539 7.37874023 14.11352539 2.95874023 14.11352539 C2.95874023 15.10352539 2.95874023 16.09352539 2.95874023 17.11352539 C8.23874023 17.11352539 13.51874023 17.11352539 18.95874023 17.11352539 C18.95874023 18.76352539 18.95874023 20.41352539 18.95874023 22.11352539 C11.69874023 22.11352539 4.43874023 22.11352539 -3.04125977 22.11352539 C-3.06188477 18.66915039 -3.08250977 15.22477539 -3.10375977 11.67602539 C-3.11286377 10.58878174 -3.12196777 9.50153809 -3.13134766 8.38134766 C-3.13384521 7.53113037 -3.13634277 6.68091309 -3.13891602 5.80493164 C-3.14415283 4.9303833 -3.14938965 4.05583496 -3.15478516 3.15478516 C-3.00084432 0.38682964 -2.76795552 0.15394083 0 0 Z " fill="#F5F5F5" transform="translate(557.041259765625,206.886474609375)"/>
<path d="M0 0 C2.06238774 4.03884266 2.46645116 7.49182468 1.5 11.9375 C-0.9375 14.9375 -0.9375 14.9375 -3.5 16.9375 C-3.83 17.2675 -4.16 17.5975 -4.5 17.9375 C-9.0863778 18.3791512 -13.21849674 18.47145969 -17.5 16.6875 C-20.83766655 13.76704177 -21.40976809 11.930051 -21.8125 7.5 C-21.47901109 3.69822638 -20.80848661 1.92998264 -18.5 -1.0625 C-12.30822058 -5.19035294 -5.73892545 -4.7346135 0 0 Z M-14.3125 3.125 C-15.92525784 5.58657776 -15.9334014 7.04815736 -15.5 9.9375 C-14.56402685 11.95701062 -14.56402685 11.95701062 -12.5 12.9375 C-8.85458155 12.70272801 -8.85458155 12.70272801 -5.5 11.9375 C-4.32991255 7.32740512 -4.32991255 7.32740512 -5.625 3 C-8.75591309 1.22581592 -11.27656111 1.13593659 -14.3125 3.125 Z " fill="#F5F5F5" transform="translate(849.5,211.0625)"/>
<path d="M0 0 C0.33 0.99 0.66 1.98 1 3 C-2.31371 5.20914 -3.3446021 5.22481553 -7.1875 5.125 C-8.08855469 5.10695312 -8.98960937 5.08890625 -9.91796875 5.0703125 C-10.60503906 5.04710937 -11.29210937 5.02390625 -12 5 C-9.96473721 7.03526279 -6.10725794 6.86791601 -3.34765625 7.3046875 C-1 8 -1 8 1 11 C1.4375 13.4375 1.4375 13.4375 1 16 C-0.75 18.3125 -0.75 18.3125 -4 20 C-9.46707623 20.59681021 -14.33018828 21.11320781 -19 18 C-17.25 14.125 -17.25 14.125 -15 13 C-14.34 13.33 -13.68 13.66 -13 14 C-10.6670134 14.04022391 -8.33293334 14.04320247 -6 14 C-6 13.67 -6 13.34 -6 13 C-6.90492188 12.94392578 -6.90492188 12.94392578 -7.828125 12.88671875 C-11.33105642 12.59857439 -14.32696075 12.29548065 -17.5625 10.875 C-19 9 -19 9 -19.5 5.5 C-19 2 -19 2 -17.375 0.125 C-11.66335752 -2.58051486 -5.82566977 -2.40385531 0 0 Z " fill="#F5F5F5" transform="translate(597,209)"/>
<path d="M0 0 C2.35048538 3.52572807 2.66397817 4.85013645 2 9 C0.16398307 11.04950728 -1.72982609 12.39196015 -4 14 C-2.02 14.33 -0.04 14.66 2 15 C2 16.65 2 18.3 2 20 C-4.6 20 -11.2 20 -18 20 C-18 18.35 -18 16.7 -18 15 C-15.81584386 13.33488097 -13.89290987 12.08855277 -11.5 10.8125 C-9.28881384 9.5919804 -7.14687691 8.33590006 -5 7 C-5 6.34 -5 5.68 -5 5 C-8.63 5 -12.26 5 -16 5 C-16.66 3.68 -17.32 2.36 -18 1 C-12.28888581 -2.80740946 -6.26414654 -2.45554544 0 0 Z " fill="#F5F5F5" transform="translate(824,209)"/>
<path d="M0 0 C1.61700325 2.82975568 1.57495922 4.5557821 1 7.75 C-0.83893694 9.79681676 -2.72968521 11.14186035 -5 12.75 C-3.02 13.08 -1.04 13.41 1 13.75 C1 15.4 1 17.05 1 18.75 C-5.6 18.75 -12.2 18.75 -19 18.75 C-19 17.1 -19 15.45 -19 13.75 C-16.69921875 11.765625 -16.69921875 11.765625 -13.6875 10 C-12.70136719 9.40703125 -11.71523438 8.8140625 -10.69921875 8.203125 C-8 6.75 -8 6.75 -5 5.75 C-5.33 5.09 -5.66 4.43 -6 3.75 C-9.63 3.75 -13.26 3.75 -17 3.75 C-17.66 2.43 -18.32 1.11 -19 -0.25 C-12.92860466 -4.29759689 -6.1121164 -3.82007275 0 0 Z " fill="#F5F5F5" transform="translate(894,210.25)"/>
<path d="M0 0 C1.61700325 2.82975568 1.57495922 4.5557821 1 7.75 C-0.83893694 9.79681676 -2.72968521 11.14186035 -5 12.75 C-3.02 13.08 -1.04 13.41 1 13.75 C1 15.4 1 17.05 1 18.75 C-5.6 18.75 -12.2 18.75 -19 18.75 C-19 17.1 -19 15.45 -19 13.75 C-16.81584386 12.08488097 -14.89290987 10.83855277 -12.5 9.5625 C-10.28881384 8.3419804 -8.14687691 7.08590006 -6 5.75 C-6 5.09 -6 4.43 -6 3.75 C-9.63 3.75 -13.26 3.75 -17 3.75 C-17.66 2.43 -18.32 1.11 -19 -0.25 C-12.92860466 -4.29759689 -6.1121164 -3.82007275 0 0 Z " fill="#F5F5F5" transform="translate(872,210.25)"/>
<path d="M0 0 C6.27 0 12.54 0 19 0 C19 1.98 19 3.96 19 6 C17.02 6 15.04 6 13 6 C13 11.28 13 16.56 13 22 C11.02 22 9.04 22 7 22 C7 16.72 7 11.44 7 6 C4.69 6 2.38 6 0 6 C0 4.02 0 2.04 0 0 Z " fill="#F5F5F5" transform="translate(599,207)"/>
</svg>
